<svg width="786" height="289" viewBox="0 0 786 289" fill="none" xmlns="http://www.w3.org/2000/svg">
<path d="M371.332 238.386C351.824 238.386 53.7112 236.884 58.0468 247.484C62.3825 258.084 214.005 267.296 254.618 261.456C295.231 255.616 361.295 280.932 433.315 287.921C505.335 294.91 585.406 265.82 611.963 261.456C638.519 257.091 668.868 241.503 637.977 238.386C607.084 235.268 390.839 238.386 371.332 238.386Z" fill="#E7EEF7"/>
<path d="M344.5 140.5C345 142.5 355.503 140.5 358.003 140.5C360.503 140.5 358.003 123 358.003 120C358.003 117 340.503 117.5 340.503 120C340.503 122.5 344 138.5 344.5 140.5Z" fill="#192F51"/>
<path d="M317.003 140.5C318.5 143.5 330.5 143 331.003 140.5C331.506 138 332.003 124 332.003 121.5C332.003 119 314.003 118 315.503 121C317.003 124 315.506 137.5 317.003 140.5Z" fill="#192F51"/>
<path d="M430 133C433.003 139.5 390 136.5 384.503 136.5C379.006 136.5 381 121 384.503 120C388.006 119 429.503 118 430 121C430.497 124 426.997 126.5 430 133Z" fill="#192F51"/>
<path d="M394 143C394.5 141 380.5 140 380.5 143V222C380.5 227 392 227.5 394 226.5C396 225.5 394 211 396 205.5C398 200 406 199 408.5 204.5C411 210 410 224.5 410 226.5C410 228.5 414 228 416.5 226C419 224 417 188 415.5 184.5C414 181 413.5 174 415.5 169.5C417.5 165 424 168.5 430 164C436 159.5 431 147.5 431 143C431 138.5 410 139 410 142C410 145 411.5 172 407 173C402.5 174 399.5 173 396 173C392.5 173 393.5 145 394 143Z" fill="#192F51"/>
<path d="M580.503 165C579.5 167 463.003 165 455.503 165C448.003 165 483.001 140.5 487.503 140.5C492.005 140.5 526.505 138 531.503 140.5C536.5 143 581.505 163 580.503 165Z" fill="#192F51"/>
<path d="M522.5 93C520.998 94.5 496.002 94 495.502 93C495.002 91.9999 499.002 81.5 509.002 82C519.002 82.5 524.002 91.4999 522.5 93Z" fill="#C3DCEB"/>
<path d="M376.327 33.4461C375.336 34.3237 358.857 34.0312 358.527 33.4461C358.198 32.861 360.835 26.7176 367.428 27.0101C374.021 27.3027 377.317 32.5684 376.327 33.4461Z" fill="#192F51"/>
<path d="M459 147C457.502 148 450.998 148.5 448.998 147.5C446.998 146.5 448.998 130 448.998 126.5C448.998 123 450.998 117 453.998 117.5C456.998 118 459.498 123 459.498 126.5C459.498 130 460.498 146 459 147Z" fill="#192F51"/>
<path d="M302 195.412C301.233 196.491 297.979 196.491 296.955 195.412C295.931 194.333 296.955 176.523 296.955 172.746C296.955 168.968 297.5 163.5 299.516 163.032C301.532 162.564 303 165.722 303 169.5C303 173.278 302.767 194.333 302 195.412Z" fill="#192F51"/>
<path d="M278 196.426C277.233 197.505 273.979 197.505 272.955 196.426C271.931 195.347 272.955 177.538 272.955 173.76C272.955 169.983 273.5 164.514 275.516 164.046C277.532 163.578 279 166.737 279 170.514C279 174.292 278.767 195.347 278 196.426Z" fill="#192F51"/>
<path d="M254 195.426C253.233 196.505 249.979 196.505 248.955 195.426C247.931 194.347 248.955 176.538 248.955 172.76C248.955 168.983 249.5 163.514 251.516 163.046C253.532 162.578 255 165.737 255 169.514C255 173.292 254.767 194.347 254 195.426Z" fill="#192F51"/>
<path d="M230 195.426C229.233 196.505 225.979 196.505 224.955 195.426C223.931 194.347 224.955 176.538 224.955 172.76C224.955 168.983 225.5 163.514 227.516 163.046C229.532 162.578 231 165.737 231 169.514C231 173.292 230.767 194.347 230 195.426Z" fill="#192F51"/>
<path d="M205 195.426C204.233 196.505 200.979 196.505 199.955 195.426C198.931 194.347 199.955 176.538 199.955 172.76C199.955 168.983 200.5 163.514 202.516 163.046C204.532 162.578 206 165.737 206 169.514C206 173.292 205.767 194.347 205 195.426Z" fill="#192F51"/>
<path d="M179 196.426C178.233 197.505 174.979 197.505 173.955 196.426C172.931 195.347 173.955 177.538 173.955 173.76C173.955 169.983 174.5 164.514 176.516 164.046C178.532 163.578 180 166.737 180 170.514C180 174.292 179.767 195.347 179 196.426Z" fill="#192F51"/>
<path d="M183.731 144.708C183.141 145.097 180.638 145.097 179.85 144.708C179.062 144.318 179.85 137.888 179.85 136.524C179.85 135.16 180.269 133.186 181.82 133.017C183.371 132.848 184.5 133.988 184.5 135.352C184.5 136.716 184.321 144.318 183.731 144.708Z" fill="#192F51"/>
<path d="M155 196.426C154.233 197.505 150.979 197.505 149.955 196.426C148.931 195.347 149.955 177.538 149.955 173.76C149.955 169.983 150.5 164.514 152.516 164.046C154.532 163.578 156 166.737 156 170.514C156 174.292 155.767 195.347 155 196.426Z" fill="#192F51"/>
<path d="M448.581 205.144C446.919 205.963 439.702 206.373 437.483 205.554C435.264 204.735 436 190.867 436 188C436 185.133 439.826 185.019 443.154 185.429C446.483 185.838 449.134 184.633 449.134 187.5C449.134 190.367 450.244 204.325 448.581 205.144Z" fill="#C3DCEB"/>
<path d="M467.198 203.89C465.536 204.709 458.319 205.118 456.1 204.299C453.881 203.48 454.617 189.612 454.617 186.746C454.617 183.879 458.443 183.765 461.772 184.174C465.1 184.584 467.751 183.379 467.751 186.246C467.751 189.112 468.861 203.071 467.198 203.89Z" fill="#C3DCEB"/>
<path d="M490.198 203.89C488.536 204.709 481.319 205.118 479.1 204.299C476.881 203.48 477.617 189.612 477.617 186.746C477.617 183.879 481.443 183.765 484.772 184.174C488.1 184.584 490.751 183.379 490.751 186.246C490.751 189.112 491.861 203.071 490.198 203.89Z" fill="#C3DCEB"/>
<path d="M500.029 117.257C499.174 117.968 495.464 118.323 494.323 117.613C493.182 116.902 493.56 104.869 493.56 102.382C493.56 99.8951 495.527 99.7958 497.239 100.151C498.951 100.506 500.314 99.4612 500.314 101.948C500.314 104.436 500.884 116.547 500.029 117.257Z" fill="#9DAFC8"/>
<path d="M524.029 117.257C523.174 117.968 519.464 118.323 518.323 117.613C517.182 116.902 517.56 104.869 517.56 102.382C517.56 99.8951 519.527 99.7958 521.239 100.151C522.951 100.506 524.314 99.4612 524.314 101.948C524.314 104.436 524.884 116.547 524.029 117.257Z" fill="#9DAFC8"/>
<path d="M512.827 117.257C511.606 117.968 506.306 118.323 504.675 117.613C503.045 116.902 503.586 104.869 503.586 102.382C503.586 99.8951 506.396 99.7958 508.841 100.151C511.287 100.506 513.234 99.4612 513.234 101.948C513.234 104.436 514.049 116.547 512.827 117.257Z" fill="#9DAFC8"/>
<path d="M404.827 165.175C403.606 165.964 398.306 166.359 396.675 165.57C395.045 164.78 395.586 151.411 395.586 148.647C395.586 145.883 398.396 145.773 400.841 146.168C403.287 146.563 405.234 145.401 405.234 148.165C405.234 150.928 406.049 164.385 404.827 165.175Z" fill="#192F51"/>
<path d="M526.891 124.471C528.43 125.326 529.2 129.036 527.661 130.177C526.121 131.318 500.05 130.94 494.662 130.94C489.273 130.94 489.057 128.973 489.827 127.261C490.597 125.549 488.333 124.186 493.722 124.186C499.11 124.186 525.351 123.616 526.891 124.471Z" fill="#C3DCEB"/>
<path d="M468.181 86.0759C469.445 88.0298 469.445 98.2541 468.181 100.862C466.918 103.471 446.158 100.862 441.737 100.862C437.315 100.862 437.769 97 437.77 92.4538C437.772 87.9075 436.58 85 441.002 85C445.423 85 466.918 84.1221 468.181 86.0759Z" fill="#192F51"/>
<path d="M376.929 37.5174C377.69 38.3117 377.69 42.4684 376.929 43.5287C376.167 44.5891 363.646 43.5287 360.98 43.5287C358.313 43.5287 358.587 41.9585 358.587 40.1103C358.588 38.262 357.87 37.08 360.536 37.08C363.203 37.08 376.167 36.723 376.929 37.5174Z" fill="#192F51"/>
<path d="M418.295 104.887C419.899 106.249 419.899 113.374 418.295 115.192C416.691 117.01 390.332 115.192 384.718 115.192C379.104 115.192 377.992 112.168 377.994 109C377.996 105.832 376.386 104 382 104C387.614 104 416.691 103.525 418.295 104.887Z" fill="#192F51"/>
<path d="M362 106.091C363.644 106.999 361.5 111.5 360.267 113.461C359.034 115.423 331.606 113.461 325.851 113.461C320.097 113.461 320.687 111.667 320.689 109.555C320.691 107.442 319.14 106.091 324.894 106.091C330.649 106.091 360.356 105.183 362 106.091Z" fill="#192F51"/>
<path d="M376.929 47.2956C377.69 47.7496 377.69 50.1248 376.929 50.7307C376.167 51.3366 363.647 50.7307 360.98 50.7307C358.313 50.7307 358.587 49.8334 358.588 48.7773C358.588 47.7211 357.87 47.0457 360.536 47.0457C363.203 47.0457 376.167 46.8417 376.929 47.2956Z" fill="#192F51"/>
<path d="M515.424 203.134C513.47 203.963 504.989 204.377 502.381 203.548C499.772 202.719 500.638 188.681 500.638 185.779C500.638 182.878 505.134 182.762 509.046 183.176C512.958 183.591 516.074 182.371 516.074 185.273C516.074 188.175 517.378 202.305 515.424 203.134Z" fill="#C3DCEB"/>
<path d="M539.424 204.134C537.47 204.963 528.989 205.377 526.381 204.548C523.772 203.719 524.638 189.681 524.638 186.779C524.638 183.878 529.134 183.762 533.046 184.176C536.958 184.591 540.074 183.371 540.074 186.273C540.074 189.175 541.378 203.305 539.424 204.134Z" fill="#C3DCEB"/>
<path d="M562.558 204.134C560.849 204.963 553.428 205.377 551.146 204.548C548.863 203.719 549.62 189.681 549.62 186.779C549.62 183.878 553.555 183.762 556.978 184.176C560.401 184.591 563.127 183.371 563.127 186.273C563.127 189.175 564.268 203.305 562.558 204.134Z" fill="#C3DCEB"/>
<path d="M579.827 204.134C578.606 204.963 573.306 205.377 571.675 204.548C570.045 203.719 570.586 189.681 570.586 186.779C570.586 183.878 573.396 183.762 575.841 184.176C578.287 184.591 580.234 183.371 580.234 186.273C580.234 189.175 581.049 203.305 579.827 204.134Z" fill="#C3DCEB"/>
<path d="M596.962 204.134C595.985 204.963 591.744 205.377 590.44 204.548C589.136 203.719 589.569 189.681 589.569 186.779C589.569 183.878 591.817 183.762 593.773 184.176C595.729 184.591 597.287 183.371 597.287 186.273C597.287 189.175 597.939 203.305 596.962 204.134Z" fill="#C3DCEB"/>
<path d="M429.096 204.134C428.364 204.963 425.183 205.377 424.205 204.548C423.227 203.719 423.552 189.681 423.552 186.779C423.552 183.878 425.238 183.762 426.705 184.176C428.172 184.591 429.34 183.371 429.34 186.273C429.34 189.175 429.829 203.305 429.096 204.134Z" fill="#C3DCEB"/>
<path d="M463.866 228.575C462.715 228.982 457.719 229.185 456.183 228.778C454.646 228.372 456.183 221.659 456.183 220.235C456.183 218.811 457.695 214.804 460 215.007C462.305 215.211 464.249 218.811 464.249 220.235C464.249 221.659 465.017 228.168 463.866 228.575Z" fill="#192F51"/>
<path d="M486.866 228.575C485.715 228.982 480.719 229.185 479.183 228.778C477.646 228.372 479.183 221.659 479.183 220.235C479.183 218.811 480.695 214.804 483 215.007C485.305 215.211 487.249 218.811 487.249 220.235C487.249 221.659 488.017 228.168 486.866 228.575Z" fill="#192F51"/>
<path d="M444.866 228.575C443.715 228.982 438.719 229.185 437.183 228.778C435.646 228.372 437.183 221.659 437.183 220.235C437.183 218.811 438.695 214.804 441 215.007C443.305 215.211 445.249 218.811 445.249 220.235C445.249 221.659 446.017 228.168 444.866 228.575Z" fill="#192F51"/>
<path d="M382.041 71.6403C383.12 75.4135 387.657 91.2828 383.995 91.9999C382.861 92.2221 380.109 91.9136 376 91.9999C374.285 92.0359 371.422 76.4877 369.5 76.5C367.857 76.5105 366.171 92.0066 364.5 91.9999C357.501 91.9715 351.264 92.3321 349 91.9999C344.05 91.2735 347.302 79.6511 350.002 72.9998C352.703 66.3485 361 54.6574 368 54.9998C375 55.3422 381.001 67.9999 382.001 71.4999L382.041 71.6403Z" fill="#C3DCEB"/>
<path d="M339.498 94.0001C337 94.0001 324.996 95 324.496 94.0001C323.996 93.0002 328.998 78.0001 333.498 72.0001C337.998 66.0001 353.5 55.0001 355 56.5001C355.769 57.2692 348.172 65.4662 344 75C340.034 84.0605 341.996 94.0001 339.498 94.0001Z" fill="#C3DCEB"/>
<path d="M397.504 93.5565C399.791 93.5565 409.048 93.4978 409.506 92.5C409.964 91.5022 404.123 78.9869 400.004 73C395.886 67.0131 382.925 54.642 381.552 56.1387C380.849 56.9061 389.181 64.487 393 74C396.629 83.0406 395.218 93.5565 397.504 93.5565Z" fill="#C3DCEB"/>
<path d="M406.5 228C405.349 228.581 402.536 228.581 401 228C399.464 227.419 399.18 216.513 399.18 214.479C399.18 212.445 399.131 209.5 402.997 208C406.863 206.5 407.246 212.445 407.246 214.479C407.246 216.513 407.651 227.419 406.5 228Z" fill="#192F51"/>
<path d="M513.725 228.575C512.319 228.982 506.212 229.185 504.335 228.778C502.457 228.372 504.335 221.659 504.335 220.235C504.335 218.811 506.183 214.804 509 215.007C511.817 215.211 514.193 218.811 514.193 220.235C514.193 221.659 515.132 228.168 513.725 228.575Z" fill="#192F51"/>
<path d="M539.725 228.575C538.319 228.982 532.212 229.185 530.335 228.778C528.457 228.372 530.335 221.659 530.335 220.235C530.335 218.811 532.183 214.804 535 215.007C537.817 215.211 540.193 218.811 540.193 220.235C540.193 221.659 541.132 228.168 539.725 228.575Z" fill="#192F51"/>
<path d="M559.725 228.575C558.319 228.982 552.212 229.185 550.335 228.778C548.457 228.372 550.335 221.659 550.335 220.235C550.335 218.811 552.183 214.804 555 215.007C557.817 215.211 560.193 218.811 560.193 220.235C560.193 221.659 561.132 228.168 559.725 228.575Z" fill="#192F51"/>
<path d="M580.937 228.575C579.913 228.982 575.473 229.185 574.107 228.778C572.741 228.372 574.107 221.659 574.107 220.235C574.107 218.811 575.451 214.804 577.5 215.007C579.549 215.211 581.277 218.811 581.277 220.235C581.277 221.659 581.96 228.168 580.937 228.575Z" fill="#192F51"/>
<path d="M592.218 228.575C591.707 228.982 589.486 229.185 588.803 228.778C588.121 228.372 588.803 221.659 588.803 220.235C588.803 218.811 589.476 214.804 590.5 215.007C591.524 215.211 592.388 218.811 592.388 220.235C592.388 221.659 592.73 228.168 592.218 228.575Z" fill="#192F51"/>
<path d="M428.218 228.575C427.707 228.982 425.486 229.185 424.803 228.778C424.121 228.372 424.803 221.659 424.803 220.235C424.803 218.811 425.476 214.804 426.5 215.007C427.524 215.211 428.388 218.811 428.388 220.235C428.388 221.659 428.73 228.168 428.218 228.575Z" fill="#192F51"/>
<path d="M58.5474 122.674C58.3825 120.201 58.0295 120.086 60.5064 119.5C62.506 119.5 60.3855 126.849 61.9157 127C64.4157 128 66.2186 123.5 65.9186 120.5C65.6186 117.5 66.6552 118.485 68.503 119.07C69.5253 119.394 69.0059 125 70.003 126C71 127 74 127.5 74.5 126C75 124.5 74.003 117.43 76.003 118C76.6675 118.189 76.5037 130.507 75.9887 147C74.9537 180.147 75.5 233.663 75.5 236C75.5 237.808 69 234 66.5 234C64 234 58.5167 234.883 59 231.5C59.4755 228.171 60.5064 171.5 60.5064 167C60.5064 162.5 59.1306 158.603 59 148.5C58.8371 135.898 58.693 124.858 58.5474 122.674Z" fill="#9DAFC8"/>
<path d="M362.582 124.418C362.467 122.096 362.22 121.989 363.951 121.438C365.347 121.438 363.866 128.336 364.935 128.478C366.681 129.416 367.941 125.193 367.731 122.377C367.521 119.561 368.246 120.486 369.536 121.035C370.25 121.339 369.887 126.6 370.584 127.539C371.28 128.478 373.376 128.947 373.725 127.539C374.074 126.131 373.378 119.496 374.775 120.031C375.239 120.208 375.125 131.769 374.765 147.249C374.042 178.359 377.5 224.363 377.5 226.556C377.5 228.253 369.883 228.902 368.137 228.902C366.391 228.902 362.561 229.731 362.898 226.556C363.231 223.432 363.625 169.305 362.926 165.55C362.228 161.796 363.017 156.731 362.926 147.249C362.812 135.421 362.684 126.467 362.582 124.418Z" fill="#9DAFC8"/>
<path d="M61.5 112.5C61.5 110 66 89.5 67.5 87.5C69 85.5 73.5 112.5 71 112.5C68.5 112.5 61.5 115 61.5 112.5Z" fill="#C3DCEB"/>
<path d="M363.5 116.106C363.5 113.606 368 93.106 369.5 91.106C371 89.106 375.5 116.106 373 116.106C370.5 116.106 363.5 118.606 363.5 116.106Z" fill="#192F51"/>
<path d="M143.616 90.9573C143.616 89.1022 145.999 74.0893 146.947 72.6051C147.896 71.121 149.629 90.4453 150.092 90.9572C150.554 91.4692 153.33 91.9813 153.793 90.4454C154.255 88.9095 156.568 71.4241 157.031 72.0146C157.493 72.6051 160.269 90.9573 160.269 90.9573C160.269 90.9573 161.194 108.364 159.344 107.852C157.493 107.34 145.003 108.364 144.078 107.852C143.153 107.34 143.616 90.9573 143.616 90.9573Z" fill="#192F51"/>
<path d="M164.995 103.792C164.669 102.084 164.912 97.9535 165.582 97.5C166.251 97.0465 167.173 106.844 167.5 107C167.827 107.156 173 107.5 173.5 107C174 106.5 173.588 96.496 174.5 97.0001C175.412 97.5042 175 103 175.5 104.5C176 106 177.202 108.046 175.5 108.5C173.798 108.954 166.558 109.111 165.905 108.954C165.252 108.798 165.321 105.5 164.995 103.792Z" fill="#192F51"/>
<path d="M178.616 91.4308C178.616 89.6271 180.999 75.0312 181.947 73.5883C182.896 72.1454 184.629 90.9329 185.092 91.4306C185.554 91.9284 188.33 92.4263 188.793 90.933C189.255 89.4398 191.568 72.4401 192.031 73.0142C192.493 73.5883 194.344 91.4306 194.344 91.4306C194.344 91.4306 195.35 108.354 193.5 107.856C191.65 107.359 180.003 108.354 179.078 107.856C178.153 107.359 178.616 91.4308 178.616 91.4308Z" fill="#192F51"/>
<path d="M455.999 75C455.884 76.8 453.041 66.62 452.003 67.9998C450.965 69.3796 448.937 79.3035 446.497 75C444.057 70.6965 443.558 67.539 443.002 68.9999C442.445 70.4608 438.927 77.6022 438.502 76.9999C438.076 76.3976 440.001 67.9999 440.001 67.9999L445.871 44.2166C445.871 44.2166 452.22 15.5002 453 18.5C453.78 21.4998 458.109 40.6858 459.004 45.4999C459.899 50.314 464.002 69 465 71C465.997 72.9999 464.997 76.9997 464.002 76.4999C463.007 76.0001 459.418 65.9037 459.004 67.9998C458.256 71.788 455.999 75 455.999 75Z" fill="#192F51"/>
<path d="M283.499 105.5C290.5 90.0004 291.499 97.9999 299.999 94.4999C308.499 90.9999 317.5 80.5002 308.5 70.5002C299.5 60.5002 284.5 66.0002 273 57.5002C261.5 49.0002 283.499 44 261.498 24.0001C239.498 4.00027 221.5 20.9999 187.498 24.0001C153.496 27.0002 121.998 57.5002 138 57.5002C154.002 57.5002 149 62.9998 174.999 60.4999C200.998 57.9999 199.498 68.5001 208.498 77C217.498 85.4999 212.002 99.0004 223.5 105.5C234.999 112 276.498 121 283.499 105.5Z" fill="#E7EEF7"/>
<path d="M133.997 158.5C134.497 155.5 84.4969 156 82.4969 158.5C80.4969 161 78.9999 228.5 80.9999 230.5C82.9999 232.5 343.503 225 353 225C362.497 225 356 169 355.997 163.5C355.994 158 321 155.5 318.5 163.5C316 171.5 327.997 205 313.5 204.5C299.003 204 141.497 204.5 136.497 204.5C131.497 204.5 133.497 161.5 133.997 158.5Z" fill="#192F51"/>
<path d="M97.9991 137.5C97.9991 135.879 98.5606 123.797 99 122.5C99.4394 121.203 101.231 138.5 100.499 138.5C100.499 138.5 100.498 160 100.499 161.5C100.5 163 101.499 163 101.499 165V189C101.499 190 103.499 190.5 103.499 191.5C103.499 192.5 103.594 196.709 103.499 197.5C103.405 198.291 101.499 198 101.499 199.5C101.499 201 101.998 231.5 101.499 232C101 232.5 95.9991 233.5 95.9991 230.5C95.9991 227.5 96 202.5 95.9991 200.5C95.9983 198.5 95.4991 198 94.4991 197.5C93.4991 197 94.4991 192.5 94.4991 191.5C94.4991 190.5 96.4991 190 96.4991 188.5V163C96.4991 162 97.4991 162.5 97.9991 161.5C98.4991 160.5 97.9991 137.5 97.9991 137.5Z" fill="#9DAFC8"/>
<path d="M122.444 137.07C122.444 135.448 123.006 123.366 123.445 122.069C123.885 120.773 125.677 138.07 124.944 138.069C124.944 138.069 124.944 159.569 124.944 161.069C124.945 162.569 125.944 162.569 125.944 164.569V188.569C125.944 189.569 127.944 190.069 127.944 191.069C127.944 192.069 128.039 196.278 127.944 197.069C127.85 197.86 125.944 197.569 125.944 199.069C125.944 200.569 126.444 231.069 125.944 231.569C125.445 232.07 120.444 233.07 120.444 230.069C120.444 227.069 120.445 202.069 120.444 200.069C120.444 198.069 119.944 197.569 118.944 197.069C117.944 196.569 118.944 192.069 118.944 191.069C118.944 190.069 120.944 189.57 120.944 188.07V162.569C120.944 161.569 121.944 162.069 122.444 161.069C122.944 160.069 122.444 137.07 122.444 137.07Z" fill="#9DAFC8"/>
<path d="M189.242 142.23C189.242 140.699 189.775 129.29 190.192 128.066C190.609 126.841 192.309 143.174 191.614 143.174C191.614 143.174 191.613 163.475 191.614 164.892C191.615 166.308 192.563 166.308 192.563 168.197V190.859C192.563 191.803 194.46 192.275 194.46 193.22C194.46 194.164 194.55 198.138 194.46 198.885C194.371 199.632 192.563 199.357 192.563 200.774C192.563 202.19 193.036 230.99 192.563 231.462C192.089 231.934 187.345 232.879 187.345 230.046C187.345 227.213 187.346 203.606 187.345 201.718C187.344 199.829 186.87 199.357 185.922 198.885C184.973 198.413 185.922 194.164 185.922 193.22C185.922 192.275 187.819 191.803 187.819 190.387V166.308C187.819 165.364 188.768 165.836 189.242 164.892C189.717 163.947 189.242 142.23 189.242 142.23Z" fill="#9DAFC8"/>
<path d="M213.242 140.23C213.242 138.699 213.775 127.29 214.192 126.066C214.609 124.841 216.309 141.174 215.614 141.174C215.614 141.174 215.613 161.475 215.614 162.892C215.615 164.308 216.563 164.308 216.563 166.197V188.859C216.563 189.803 218.46 190.275 218.46 191.22C218.46 192.164 218.55 196.138 218.46 196.885C218.371 197.632 216.563 197.357 216.563 198.774C216.563 200.19 217.036 228.99 216.563 229.462C216.089 229.934 211.345 230.879 211.345 228.046C211.345 225.213 211.346 201.606 211.345 199.718C211.344 197.829 210.87 197.357 209.922 196.885C208.973 196.413 209.922 192.164 209.922 191.22C209.922 190.275 211.819 189.803 211.819 188.387V164.308C211.819 163.364 212.768 163.836 213.242 162.892C213.717 161.947 213.242 140.23 213.242 140.23Z" fill="#9DAFC8"/>
<path d="M237.242 140.23C237.242 138.699 237.775 127.29 238.192 126.066C238.609 124.841 240.309 141.174 239.614 141.174C239.614 141.174 239.613 161.475 239.614 162.892C239.615 164.308 240.563 164.308 240.563 166.197V188.859C240.563 189.803 242.46 190.275 242.46 191.22C242.46 192.164 242.55 196.138 242.46 196.885C242.371 197.632 240.563 197.357 240.563 198.774C240.563 200.19 241.036 228.99 240.563 229.462C240.089 229.934 235.345 230.879 235.345 228.046C235.345 225.213 235.346 201.606 235.345 199.718C235.344 197.829 234.87 197.357 233.922 196.885C232.973 196.413 233.922 192.164 233.922 191.22C233.922 190.275 235.819 189.803 235.819 188.387V164.308C235.819 163.364 236.768 163.836 237.242 162.892C237.717 161.947 237.242 140.23 237.242 140.23Z" fill="#9DAFC8"/>
<path d="M262.242 140.23C262.242 138.699 262.775 127.29 263.192 126.066C263.609 124.841 265.309 141.174 264.614 141.174C264.614 141.174 264.613 161.475 264.614 162.892C264.615 164.308 265.563 164.308 265.563 166.197V188.859C265.563 189.803 267.46 190.275 267.46 191.22C267.46 192.164 267.55 196.138 267.46 196.885C267.371 197.632 265.563 197.357 265.563 198.774C265.563 200.19 266.036 228.99 265.563 229.462C265.089 229.934 260.345 230.879 260.345 228.046C260.345 225.213 260.346 201.606 260.345 199.718C260.344 197.829 259.87 197.357 258.922 196.885C257.973 196.413 258.922 192.164 258.922 191.22C258.922 190.275 260.819 189.803 260.819 188.387V164.308C260.819 163.364 261.768 163.836 262.242 162.892C262.717 161.947 262.242 140.23 262.242 140.23Z" fill="#9DAFC8"/>
<path d="M285.242 140.23C285.242 138.699 285.775 127.29 286.192 126.066C286.609 124.841 288.309 141.174 287.614 141.174C287.614 141.174 287.613 161.475 287.614 162.892C287.615 164.308 288.563 164.308 288.563 166.197V188.859C288.563 189.803 290.46 190.275 290.46 191.22C290.46 192.164 290.55 196.138 290.46 196.885C290.371 197.632 288.563 197.357 288.563 198.774C288.563 200.19 289.036 228.99 288.563 229.462C288.089 229.934 283.345 230.879 283.345 228.046C283.345 225.213 283.346 201.606 283.345 199.718C283.344 197.829 282.87 197.357 281.922 196.885C280.973 196.413 281.922 192.164 281.922 191.22C281.922 190.275 283.819 189.803 283.819 188.387V164.308C283.819 163.364 284.768 163.836 285.242 162.892C285.717 161.947 285.242 140.23 285.242 140.23Z" fill="#9DAFC8"/>
<path d="M310.242 141.23C310.242 139.699 310.775 128.29 311.192 127.066C311.609 125.841 313.309 142.174 312.614 142.174C312.614 142.174 312.613 162.475 312.614 163.892C312.615 165.308 313.563 165.308 313.563 167.197V189.859C313.563 190.803 315.46 191.275 315.46 192.22C315.46 193.164 315.55 197.138 315.46 197.885C315.371 198.632 313.563 198.357 313.563 199.774C313.563 201.19 314.036 229.99 313.563 230.462C313.089 230.934 308.345 231.879 308.345 229.046C308.345 226.213 308.346 202.606 308.345 200.718C308.344 198.829 307.87 198.357 306.922 197.885C305.973 197.413 306.922 193.164 306.922 192.22C306.922 191.275 308.819 190.803 308.819 189.387V165.308C308.819 164.364 309.768 164.836 310.242 163.892C310.717 162.947 310.242 141.23 310.242 141.23Z" fill="#9DAFC8"/>
<path d="M337.242 142.23C337.242 140.699 337.775 129.29 338.192 128.066C338.609 126.841 340.309 143.174 339.614 143.174C339.614 143.174 339.613 163.475 339.614 164.892C339.615 166.308 340.563 166.308 340.563 168.197V190.859C340.563 191.803 342.46 192.275 342.46 193.22C342.46 194.164 342.55 198.138 342.46 198.885C342.371 199.632 340.563 199.357 340.563 200.774C340.563 202.19 341.036 230.99 340.563 231.462C340.089 231.934 335.345 232.879 335.345 230.046C335.345 227.213 335.346 203.606 335.345 201.718C335.344 199.829 334.87 199.357 333.922 198.885C332.973 198.413 333.922 194.164 333.922 193.22C333.922 192.275 335.819 191.803 335.819 190.387V166.308C335.819 165.364 336.768 165.836 337.242 164.892C337.717 163.947 337.242 142.23 337.242 142.23Z" fill="#9DAFC8"/>
<path d="M138.998 143.5C138.998 141.021 140.559 125.071 140.998 123.087C141.437 121.104 142.73 144.5 141.998 144.5V162C141.998 162 143.498 163 143.498 165.5C143.498 168 142.998 166.5 142.498 169C141.998 171.5 141.501 187 141.998 188.5C142.495 190 143.998 189.5 143.998 191V198.5C143.998 200 142.498 201 142.498 201C142.498 201 144.002 231.5 143 232C141.998 232.5 137.5 234 137.5 232C137.5 230 138 203.5 138 201C138 198.5 136.005 200 136 197C135.995 194 135.004 191.5 137.004 190C139.004 188.5 138.5 170 138.5 169C138.5 168 136.998 169 136.998 165.5C136.998 162 138.998 163 138.998 161V143.5Z" fill="#9DAFC8"/>
<path d="M165.242 141.23C165.242 139.699 165.775 128.29 166.192 127.066C166.609 125.841 168.309 142.174 167.614 142.174C167.614 142.174 167.613 162.475 167.614 163.892C167.615 165.308 168.563 165.308 168.563 167.197V189.859C168.563 190.803 170.46 191.275 170.46 192.22C170.46 193.164 170.55 197.138 170.46 197.885C170.371 198.632 168.563 198.357 168.563 199.774C168.563 201.19 169.036 229.99 168.563 230.462C168.089 230.934 163.345 231.879 163.345 229.046C163.345 226.213 163.346 202.606 163.345 200.718C163.344 198.829 162.87 198.357 161.922 197.885C160.973 197.413 161.922 193.164 161.922 192.22C161.922 191.275 163.819 190.803 163.819 189.387V165.308C163.819 164.364 164.768 164.836 165.242 163.892C165.717 162.947 165.242 141.23 165.242 141.23Z" fill="#9DAFC8"/>
<path d="M58.2779 197.921C57.9777 197.938 57.7152 197.964 57.4974 198C54.4977 198.5 61.9969 238.5 44.4969 244.5C26.9969 250.5 26.5 226.5 0.5 240.5M58.2779 197.921C62.114 197.705 72.1065 198.928 73.4977 198C74.9977 197 74.9977 164.163 74.9977 162.163C74.9977 160.163 76.9974 159.5 77.4974 161.5C77.9974 163.5 77.4603 201 77.4603 201C77.5419 202.287 76.8764 203.5 74.9977 203.5H59.4977C58.7635 203.5 58.4109 201.303 58.2779 197.921ZM58.2779 197.921C58.1101 193.655 58.2917 187.504 58.4977 181.5C58.9068 169.573 55.4977 158 58.4977 158C61.4977 158 74.9977 159.001 75.9977 157.501C76.9977 156.001 76.9974 155.5 76.4974 154C75.9974 152.5 62.4977 154 59.4977 154C56.4977 154 57.4974 121.5 57.4974 119C57.4974 116.5 60.9977 117 60.9977 118.5C60.9977 120 59.9972 124 61.9974 125C63.9977 126 65.4974 126 65.4974 124C65.4974 122 64.4977 119.5 65.4974 118C66.4972 116.5 69.9974 117 69.9974 119C69.9974 121 69.4974 124 70.9974 125C72.4974 126 72.9206 125.462 73.9974 125C76.5101 123.924 73.9974 120 73.9974 118C73.9974 117.69 73.9131 116.645 73.7595 115.092M73.7595 115.092C72.9652 107.06 70.3169 85.4355 67.8813 81.4771M73.7595 115.092C69.1121 114.586 62.1082 115 60.4977 115C58.2033 115 65.1727 87.2136 67.8813 81.4771M73.7595 115.092C76.3271 115.372 78.1754 115.933 77.9974 117C77.4974 120 76.9974 150 77.4974 151.5C77.9974 153 79.9974 154 79.9974 151.5V146.5C79.9974 145 84.4974 144 84.4974 146.5C84.4974 149 83.4972 149.499 84.4974 151.5C85.4977 153.502 89.4974 153 89.4974 151.5V146.5C89.4974 145 94.9974 144.5 94.9974 146.5C94.9974 148.5 94.8612 151.002 94.6794 152.501C94.4977 154 104.498 154.659 104.498 152.001C104.498 149.343 103.998 145.343 105.498 145.501C106.998 145.659 109.498 145.16 109.498 146.501C109.498 147.842 108.998 151.002 109.498 152.501C109.998 154 111.998 153.501 113.498 153.001C114.998 152.501 111.498 145.501 115.998 145.501C120.498 145.501 117.286 152.501 119.998 152.501H127.498C130.498 152.501 132.498 152.659 132.498 151.159V146.159C132.498 144.659 136.998 144.159 136.998 146.159C136.998 148.159 139.498 160.722 136.998 162.066C136.232 162.478 135.498 168.659 136.998 168.659C138.498 168.659 136.998 186.678 136.998 188.001C136.998 189.908 134.998 189.594 134.998 191.501C134.998 193.408 134.498 199.505 135.998 200.001C137.498 200.497 136.998 226.167 135.998 228.163C134.998 230.159 126.998 230.066 127.498 228.163C127.998 226.26 126.498 202.593 126.998 201C127.498 199.408 128.998 198.663 128.998 197.163V191.501C128.998 189.659 127.998 190.005 127.498 189.005C126.998 188.005 126.998 167.516 126.998 167.516V161.505C126.998 160.505 125.998 161.505 125.899 160.163C125.801 158.821 125.899 139.163 125.899 139.163C125.899 139.163 123.998 115.347 122.998 115.005C121.998 114.663 120.998 137.322 120.998 139.163V160.163C120.998 161.533 119.998 160.163 119.498 162.163C118.998 164.163 118.998 187.325 118.998 188.663C118.998 190.001 116.998 189.663 116.998 190.505C116.998 191.136 116.506 194.536 116.998 197.501C117.162 198.491 118.372 199.876 118.498 200.501C118.998 202.997 118.498 226.26 118.498 228.163C118.498 230.066 102.998 228.163 102.998 228.163C102.998 228.163 102.498 202.094 102.998 200.501C103.498 198.908 104.998 199.501 104.998 198.001V191.501C104.998 189.659 103.998 190.005 103.498 189.005C102.998 188.005 102.998 167.516 102.998 167.516V161.505C102.998 160.505 101.998 161.505 101.899 160.163C101.801 158.821 101.899 139.163 101.899 139.163C101.899 139.163 99.9977 115.347 98.9977 115.005C97.9977 114.663 96.9977 137.322 96.9977 139.163V160.163C96.9977 161.533 95.9977 160.163 95.4977 162.163C94.9977 164.163 95.4977 186.825 94.9977 188.663C94.4977 190.501 92.9977 189.659 92.9977 190.501C92.9977 190.501 92.4977 197.339 93.4977 198.001C94.4977 198.663 94.4977 201.001 94.4977 201.001C94.4977 201.001 94.4977 225.826 94.4977 228.163C94.4977 230.501 79.4974 228.01 77.9974 227.005C76.4974 226.001 76.4974 209.556 76.4974 208.5C76.4974 205.5 72.9972 205.5 72.4974 208.5C71.9977 211.5 74.9972 232.5 72.4974 234C71.1322 234.82 115.998 234 120.998 234.507C125.998 235.013 153.998 234.507 157.998 234.507C161.998 234.507 161.998 231.001 161.998 228.908C161.998 226.816 160.998 197.908 160.998 192.408C160.998 186.908 160.918 184.027 160.998 179.159C161.091 173.543 161.998 169.191 161.998 162.066V145.159C161.998 143.159 156.498 143.659 156.498 145.159V150.159C156.498 151.659 152.498 152.161 151.498 150.159C150.497 148.158 151.498 147.659 151.498 145.159C151.498 142.659 146.498 143.659 146.498 145.159C146.498 145.159 144.998 154.502 146.998 155.002C148.998 155.502 155.498 155.002 157.998 155.002C160.498 155.002 159.998 162.659 159.498 165.159C158.998 167.659 156.498 161.159 152.998 161.159C149.498 161.159 147.498 164.307 146.998 168.659C146.498 173.012 146.998 196.502 147.498 199.002C147.998 201.502 158.998 198.661 158.998 200.659V213.001C158.998 213.001 158.998 225.009 157.998 228.163C156.998 231.317 144.998 231.317 144.498 228.163C143.998 225.009 143.498 206.001 143.498 203.5C143.498 201 144.998 201.5 144.998 200.001C144.998 198.502 144.998 193.501 144.998 191.501C144.998 189.501 142.998 189.908 142.998 188.001C142.998 186.094 143.498 168.659 143.498 168.659C143.498 168.659 144.998 165.067 144.498 163.501C143.998 161.935 142.998 163.663 142.998 160.163C142.998 156.663 142.998 150.159 142.998 150.159V143.161C142.998 140.659 138.498 143.161 138.498 141.159C138.498 139.158 137.998 137.661 138.498 134.659C138.997 131.658 139.998 122.161 140.498 117.659C140.997 113.158 143.498 133.159 143.498 135.161C143.498 137.162 141.998 140.66 145.498 140.66H158.998C161.498 140.66 161.998 134.659 159.998 134.659C157.998 134.659 148.998 135.161 146.498 134.659C143.998 134.158 144.498 118.317 144.498 116.659C144.498 115.002 142.07 117.002 141.871 115.002C141.672 113.002 141.871 93.5016 141.871 91.0016C141.871 88.5016 146.498 68.5016 147.498 68.5016C148.498 68.5016 150.498 90.0016 151.998 90.0016C153.498 90.0016 156.498 69.0016 157.498 68.5016C158.498 68.0016 161.998 87.5022 161.998 91.0016C161.998 94.5011 163.998 110.002 160.498 110.002H145.498C143.498 110.002 142.498 113.002 145.498 113.502C147.033 113.758 158.355 113.569 170.998 113.502C172.661 113.493 174.256 113.486 175.779 113.482C185.292 113.454 191.98 113.502 194.998 113.502C198.498 113.502 198.498 110.002 194.498 110.002H175.868H165.498C163.998 110.002 163.998 104.502 163.998 104.502C163.998 104.502 163.498 92.0016 164.998 92.0016C166.498 92.0016 166.997 105.502 167.998 106.002C168.998 106.502 171.998 106.501 172.498 105.502C172.998 104.502 173.498 90.5016 174.998 90.5016C176.498 90.5016 175.498 105.502 176.998 105.502C178.498 105.502 177.498 92.0016 177.498 91.0016C177.498 90.0016 180.998 69.0011 182.498 69.0011C183.998 69.0011 184.998 90.5016 186.498 90.5016C187.998 90.5016 190.498 69.0011 191.998 69.0011C193.498 69.0011 196.498 88.0033 196.498 91.0016C196.498 94 195.998 103.001 195.998 107.5C195.998 111.999 194.998 153.5 194.998 156C194.998 158.5 220.03 156.5 225.998 156.5C231.965 156.5 244.289 156.5 247.94 156.5C251.591 156.5 266.381 156.5 270.998 156.5C275.615 156.5 294.4 157 296.998 157C299.596 157 323.998 157 327.998 157C331.998 157 329.998 154.192 329.998 153.001C329.998 151.81 329.498 149.499 329.998 147C330.498 144.501 323.998 145.501 322.998 145.501C321.998 145.501 323.498 153.001 321.998 153.001C320.498 153.001 319.998 153.5 317.998 153.001C315.998 152.502 316.498 147.5 316.498 146.159C316.498 144.819 306.615 145.819 305.115 146.159C303.615 146.5 305.498 152.002 303.998 152.002C302.498 152.002 299.998 152.001 298.498 152.002C296.998 152.003 297.998 147.5 297.498 146.159C296.998 144.819 292.592 144.843 292.045 145.501C291.498 146.159 292.545 151.502 291.498 152.002C290.451 152.502 285.655 152.003 283.373 152.002C281.091 152 281.498 148.341 281.498 147C281.498 145.659 276.998 146 275.998 146.5C274.998 147 276.731 151.5 275.615 152C274.498 152.5 270.998 152.002 269.998 152.002C268.998 152.002 269.498 148.341 269.498 147C269.498 145.659 255.998 145.819 254.498 146.159C252.998 146.5 254.498 151.003 254.498 152.002C254.498 153 251.143 152.5 249.498 152C247.853 151.5 249.41 146.341 248.498 146C247.585 145.659 243.998 145.319 243.998 146.159C243.998 147 243.998 151.003 243.998 152.002C243.998 153 238.625 152.499 235.998 152.5C233.37 152.501 234.582 147.5 234.498 146.5C234.414 145.5 231.498 146.159 230.498 146.159C229.498 146.159 230.998 151 230.498 152C229.998 153 226.928 152.5 226.498 151.5C226.068 150.5 226.568 147.159 225.998 146.5C225.428 145.841 223.998 146.159 222.498 146.159C220.998 146.159 221.498 150.503 221.498 152.002C221.498 153.5 208.498 153.341 207.498 152.5C206.498 151.659 206.998 148.999 206.998 147C206.998 145.001 202.498 144.66 201.498 146.159C200.498 147.658 201.498 150 201.498 152C201.498 154 199.151 153.498 197.998 152C196.845 150.502 197.388 147.159 197.388 146.159C197.388 145.159 178.888 147.159 179.388 146.001C179.888 144.844 179.498 137.001 179.498 134.659C179.498 132.317 181.498 130.501 182.998 130.502C184.498 130.502 185.998 132.843 185.998 134.002V144.002C185.998 146.159 186.498 152.002 184.998 152.501C183.498 153 174.998 153.501 174.498 152.002C173.998 150.502 174.498 148.001 174.498 146.159C174.498 144.317 170.498 146.317 169.998 145.159C169.498 144.002 169.998 142.501 169.998 140.002C169.998 137.502 168.498 136.162 168.498 134.161C168.498 132.159 165.997 112.158 165.498 116.659C164.998 121.161 163.997 130.658 163.498 133.659C162.998 136.661 163.498 138.158 163.498 140.159C163.498 142.161 167.998 139.659 167.998 142.161C167.998 142.161 167.771 154.56 167.998 162.5C168.266 171.888 168.498 188.001 168.498 188.001C168.498 188.001 170.498 227.818 170.498 230.159C170.498 232.501 185.498 232.908 185.498 230.066V201.408C185.498 197.816 176.998 199.909 173.998 199.159C170.998 198.41 172.998 167.659 172.998 167.659C172.998 167.659 173.998 162.159 177.998 162.159C181.998 162.159 183.998 164.659 183.998 167.659V195.501C183.998 197.501 185.998 195.501 185.998 194.659V190.566C185.998 190.566 185.998 166.066 186.498 164.066C186.998 162.066 187.998 163.436 187.998 162.066V141.066C187.998 139.225 188.998 116.566 189.998 116.908C190.998 117.249 192.899 141.066 192.899 141.066C192.899 141.066 192.801 160.724 192.899 162.066C192.998 163.408 193.998 162.408 193.998 163.408V169.419C193.998 169.419 193.998 189.908 194.498 190.908C194.998 191.908 195.998 190.566 195.998 192.408V199.066C195.998 200.566 194.498 198.973 193.998 200.566C193.498 202.159 193.998 225.827 193.998 228.163C193.998 230.5 210.151 231 210.151 228.828C210.151 226.656 210.151 200.504 210.151 200.504C210.151 196.912 202.651 199.005 199.651 198.255C196.651 197.506 198.651 166.755 198.651 166.755C198.651 166.755 198.651 161.255 202.651 161.255C206.651 161.255 208.651 163.755 208.651 166.755V194.597C208.651 196.597 210.651 194.597 210.651 193.755V189.662C210.651 189.662 210.651 165.162 211.151 163.162C211.651 161.162 212.651 162.532 212.651 161.162V140.162C212.651 138.321 213.651 115.662 214.651 116.004C215.651 116.345 217.552 140.162 217.552 140.162C217.552 140.162 217.454 159.82 217.552 161.162C217.651 162.504 218.651 161.504 218.651 162.504V168.515C218.651 168.515 218.651 189.004 219.151 190.004C219.651 191.004 220.651 189.662 220.651 191.504V198.162C220.651 199.662 219.151 198.069 218.651 199.662C218.151 201.255 219.151 224 219.151 227.5C219.151 231 230.172 229.492 233.044 228.828C235.917 228.163 234.414 200.751 234.414 200.751C234.414 197.148 227.568 199.247 224.829 198.495C222.091 197.744 223.917 166.903 223.917 166.903C223.917 166.903 223.917 161.387 227.568 161.387C231.219 161.387 233.044 163.895 233.044 166.903V194.826C233.044 196.832 234.87 194.826 234.87 193.982V189.877C234.87 189.877 234.87 165.305 235.326 163.3C235.783 161.294 236.695 162.668 236.695 161.294V140.233C236.695 138.386 237.608 115.661 238.521 116.004C239.434 116.346 241.17 140.233 241.17 140.233C241.17 140.233 241.08 159.948 241.17 161.294C241.259 162.639 242.172 161.636 242.172 162.639V168.668C242.172 168.668 242.172 189.217 242.629 190.219C243.085 191.222 243.998 189.877 243.998 191.724V198.402C243.998 199.906 242.629 198.309 242.172 199.906C241.716 201.503 241.998 228.156 243.998 228.828C245.998 229.5 258.87 230.332 258.87 228.828C258.87 227.324 258.437 200.751 258.437 200.751C258.437 197.148 251.591 199.247 248.853 198.495C246.114 197.744 247.94 166.903 247.94 166.903C247.94 166.903 247.94 161.387 251.591 161.387C255.242 161.387 257.068 163.895 257.068 166.903V194.826C257.068 196.832 258.893 194.826 258.893 193.982V189.877C258.893 189.877 258.893 165.305 259.35 163.3C259.806 161.294 260.719 162.668 260.719 161.294V140.233C260.719 138.386 261.632 115.661 262.545 116.004C263.457 116.346 265.193 140.233 265.193 140.233C265.193 140.233 265.103 159.948 265.193 161.294C265.283 162.639 266.196 161.636 266.196 162.639V168.668C266.196 168.668 266.196 189.217 266.652 190.219C267.108 191.222 268.021 189.877 268.021 191.724V198.402C268.021 199.906 266.652 198.309 266.196 199.906C265.739 201.503 267.545 224 268.021 227.5C268.498 231 282.893 230.332 282.893 228.828C282.893 227.324 282.46 200.751 282.46 200.751C282.46 197.148 275.614 199.247 272.876 198.495C270.138 197.744 271.963 166.903 271.963 166.903C271.963 166.903 271.963 161.387 275.615 161.387C279.266 161.387 281.091 163.895 281.091 166.903V194.826C281.091 196.832 282.917 194.826 282.917 193.982V189.877C282.917 189.877 282.917 165.305 283.373 163.3C283.83 161.294 284.742 162.668 284.742 161.294V140.233C284.742 138.386 285.655 115.661 286.568 116.004C287.481 116.346 289.216 140.233 289.216 140.233C289.216 140.233 289.127 159.948 289.216 161.294C289.306 162.639 290.219 161.636 290.219 162.639V168.668C290.219 168.668 290.219 189.217 290.676 190.219C291.132 191.222 292.045 189.877 292.045 191.724V198.402C292.045 199.906 290.676 198.309 290.219 199.906C289.763 201.503 290.176 225.5 290.676 228C291.176 230.5 306.94 229.504 306.94 228C306.94 226.496 306.484 200.751 306.484 200.751C306.484 197.148 299.638 199.247 296.9 198.495C294.161 197.744 295.987 166.903 295.987 166.903C295.987 166.903 295.987 161.387 299.638 161.387C303.289 161.387 305.115 163.895 305.115 166.903V194.826C305.115 196.832 306.94 194.826 306.94 193.982V189.877C306.94 189.877 306.94 165.305 307.397 163.3C307.853 161.294 308.766 162.668 308.766 161.294V140.233C308.766 138.386 309.585 117.157 310.498 117.5C311.41 117.843 313.24 140.233 313.24 140.233C313.24 140.233 313.15 159.948 313.24 161.294C313.33 162.639 314.243 161.636 314.243 162.639V168.668C314.243 168.668 314.243 189.217 314.699 190.219C315.155 191.222 316.068 189.877 316.068 191.724V198.402C316.068 199.906 314.699 198.309 314.243 199.906C313.786 201.503 314.139 228.828 316.068 228.828C317.998 228.828 331.998 229.5 333.498 228.828C334.537 228.362 334.498 202 333.57 201.5C332.643 201 332.844 193.173 332.998 192.5C333.498 190.306 334.998 191 334.998 190.219C334.998 189.439 334.498 170 334.498 170C334.498 170 333.998 165.361 334.498 164C334.998 162.639 335.498 164.5 335.498 162.639C335.498 160.779 334.998 143 334.998 140.674C334.998 138.349 336.498 117.5 337.498 117.5C338.498 117.5 340.498 138.849 340.498 140.674C340.498 142.5 339.498 161.708 340.498 162.504C341.498 163.3 341.498 168.515 340.498 170C339.498 171.485 340.498 188.996 340.498 190.219C340.498 191.443 342.998 190.448 342.998 191.724C342.998 193 343.998 200.751 342.998 200.751C341.998 200.751 341.498 202 341.498 202C341.498 202 340.498 226 341.498 228C342.498 230 359.998 228.828 360.498 227.5C360.998 226.172 360.498 159 360.498 157C360.498 155 344.498 157 344.498 156C344.498 155 343.498 146.5 344.498 145.501C345.498 144.502 349.498 145 349.498 146C349.498 147 348.998 151 349.998 151.5C350.998 152 353.498 152.5 353.998 151.5C354.498 150.5 352.998 145.501 354.498 145.501C355.998 145.501 358.498 144.501 358.498 146C358.498 147.499 357.998 153.502 359.498 153.001C360.998 152.5 360.498 122 360.498 120C360.498 118 364.998 118 364.998 120C364.998 122 364.498 123 364.998 124.5C365.498 126 367.498 125.5 367.498 124.5C367.498 123.5 367.498 121.5 367.498 120C367.498 118.5 371.998 118 371.998 119.5C371.998 121 371.998 123.5 371.998 124.5C371.998 125.5 373.498 126 373.998 124.5C374.498 123 373.998 120.5 373.998 119C373.998 117.5 376.498 118 377.498 118C378.498 118 371.498 79.5 369.998 80C368.498 80.5 363.498 116.004 361.998 116.004C360.498 116.004 343.498 116.004 340.998 116.004C338.498 116.004 314.998 116.004 314.998 116.004C314.998 116.004 303.498 115.508 301.998 116.004C300.498 116.5 301.998 126 301.998 127C301.998 128 302.278 127.5 299.638 127.5C296.998 127.5 296.278 131 299.638 132C302.998 133 315.498 132 317.498 132C319.498 132 317.498 104 318.998 104C320.498 104 358.998 104 361.498 104C363.998 104 361.498 98.5 359.998 98.5C358.498 98.5 320.998 98.5 317.998 98.5C314.998 98.5 314.998 95 316.498 95C317.998 95 317.998 95 320.498 95C322.998 95 323.498 79.5 331.498 70C339.498 60.5 354.498 53.9373 354.498 53.9373C354.498 53.9373 360.998 52.9373 360.498 53.9373C359.998 54.9373 351.998 64 347.998 71.5C343.998 79 343.718 95 344.498 95C345.998 95 383.498 95 386.998 95C388.645 95 386.498 79 383.998 71.5C381.498 64 372.998 53.5 374.998 53.5C376.998 53.5 384.498 63 388.998 71.5C393.498 80 393.998 94.5 396.498 94.5C398.998 94.5 407.498 94.5 410.498 94.5C413.498 94.5 408.998 84 404.498 75C399.998 66 378.498 51.5 378.498 51.5C378.498 51.5 357.498 53 357.498 51C357.498 49 356.498 45 358.498 45C360.498 45 377.498 45.5 378.498 44.5C379.498 43.5 378.998 37.5 378.498 36C377.998 34.5 357.498 35.6689 357.498 33C357.498 30.3311 361.498 26.5 364.998 26C368.498 25.5 368.998 25.7598 371.998 25C373.452 24.6317 369.998 20.5 367.498 20.5C364.998 20.5 367.498 16.5 367.498 12C367.498 7.5 369.359 19.3049 368.498 20C367.636 20.6951 363.152 23.0517 364.498 24.5C365.843 25.9483 371.248 25.75 373.998 27C376.748 28.25 378.856 31.4172 378.498 33.5C378.14 35.5828 358.498 35 357.498 36C356.498 37 356.56 43.5068 357.498 43.5C358.435 43.4932 375.498 45.5 377.498 46C379.498 46.5 377.498 47.5 378.998 49.5C380.498 51.5 392.998 58 403.498 68C413.998 78 414.998 94.5 417.498 94.5C419.998 94.5 420.998 94 421.498 95C421.998 96 421.498 98.5 419.498 98.5C417.498 98.5 378.998 98.5 377.498 98.5C375.998 98.5 377.498 102 380.998 102.5C384.498 103 421.498 99.5 421.498 103C421.498 106.5 422.998 117.5 419.998 117.5C416.998 117.5 383.998 117.5 382.498 117.5C380.998 117.5 380.998 128 383.498 128C385.998 128 429.998 128 431.998 127.5C433.998 127 434.498 119 433.498 118C432.498 117 431.998 117.5 427.498 117.5C422.998 117.5 429.498 128.5 430.998 130.5C432.498 132.5 432.498 138.5 429.998 138.5C427.498 138.5 380.498 139 379.998 138C379.498 137 378.998 125.5 378.998 123.5C378.998 121.5 376.998 122 376.998 124.5C376.998 125.665 377.998 165.5 377.498 173.5C376.998 181.5 376.498 228 378.498 228C380.498 228 394.498 228 396.998 228C399.498 228 397.998 212.5 397.998 210C397.998 207.5 401.498 205.5 404.498 205.5C407.498 205.5 408.498 209 408.498 211C408.498 213 408.498 228 409.498 228C410.498 228 416.998 227.5 418.498 228C419.998 228.5 418.998 196.5 418.998 194C418.998 191.5 392.014 192.5 390.998 192.5C389.982 192.5 390.184 178.968 390.498 166.551C390.761 156.152 390.498 146.64 390.498 145.501C390.498 143.002 396.998 142 401.998 142C406.998 142 406.998 145 406.998 145C406.998 145 407.027 150.049 406.998 155C406.963 160.914 407.314 166.903 406.498 166.903C404.998 166.903 400.998 167.5 398.998 166.903C396.998 166.307 397.998 150 397.998 147C397.998 144 429.998 143.501 429.998 145.501C429.998 147.501 430.998 165 428.998 165.5C426.998 166 420.498 164.807 418.998 166.903C417.498 169 416.998 179.5 418.998 179.5C419.824 179.5 449.613 179.695 485.498 179.5C504.29 179.398 522.981 179.523 540.998 179.5C571.84 179.461 598.812 179.944 598.998 180.5C599.498 182 600.506 205.5 599.498 206.5C598.49 207.5 588.498 207 587.498 206C586.498 205 587.498 185.5 587.498 184C587.498 182.5 583.998 183.5 582.498 184C580.998 184.5 582.998 205 582.498 206C581.998 207 570.998 207 569.998 206C568.998 205 569.498 185.5 568.998 184C568.498 182.5 564.498 183 564.498 184C564.498 185 565.498 205 564.498 206C563.498 207 551.498 206.5 549.498 205.5C547.498 204.5 548.998 185.5 548.498 184.5C547.998 183.5 544.498 182.5 543.498 184C542.498 185.5 542.998 204 541.998 205.5C540.998 207 524.998 206.5 523.498 205.5C521.998 204.5 523.498 185 523.498 183.5C523.498 182 518.498 182 518.498 183.5C518.498 185 518.998 204.5 517.498 205.5C515.998 206.5 502.498 205.5 499.998 205.5C497.498 205.5 498.998 187 498.998 184.5C498.998 182 494.498 180.5 494.498 184.5C494.498 188.5 494.998 204.83 492.498 205.5C489.998 206.17 477.998 206.17 475.998 205.5C473.998 204.83 474.998 186.5 474.998 184.5C474.998 182.5 470.498 180.5 470.498 184C470.498 187.5 470.498 204 470.498 205.5C470.498 206.328 465.619 206.126 460.998 206.17C457.249 206.206 453.669 206.618 452.998 206.17C451.498 205.17 451.498 187 451.498 184.5C451.498 182 434.498 183 434.498 185C434.498 187 434.498 201.639 434.498 204.5C434.498 207.361 428.998 207.5 428.998 205.5C428.998 203.5 429.498 185 428.998 184C428.498 183 422.998 183 422.998 185C422.998 187 421.998 228 422.998 228C423.998 228 423.498 213.5 426.498 213C429.498 212.5 429.498 216 429.498 216C429.498 216 428.998 227.5 429.998 228C430.998 228.5 434.998 228.5 435.498 228C435.998 227.5 433.498 213 440.998 213C444.245 213 445.772 214.311 446.498 217.5C447.448 221.676 445.498 228 446.998 228C448.498 228 453.498 228 453.998 228C454.498 228 450.998 212.5 460.998 213C470.998 213.5 465.498 227.5 467.498 228C469.498 228.5 475.998 229.5 475.998 227.5C475.998 225.5 476.498 212.5 484.498 213C492.498 213.5 490.498 226.5 490.998 228C491.498 229.5 500.498 230.5 501.498 228C502.498 225.5 499.998 212.5 508.998 212.5C517.998 212.5 515.498 227 516.998 228.5C518.498 230 527.498 230 526.998 228C526.498 226 524.998 213 534.498 213C543.998 213 540.498 226.5 541.998 228C543.498 229.5 549.998 229.5 549.998 228.5C549.998 227.5 547.998 213 556.498 213C564.998 213 561.498 228 562.998 228.5C564.498 229 569.998 229 571.498 228.5C572.998 228 570.498 213 577.498 213C584.498 213 581.998 228 582.498 228.5C582.998 229 586.498 229.5 587.498 228.5C588.498 227.5 585.998 212.5 590.998 213C595.998 213.5 591.998 228 593.998 228.5C595.998 229 597.498 229 598.498 228.5C599.498 228 596.998 176 597.498 170.5C597.702 168.251 568.819 168.495 534.498 168.5C484.875 168.507 423.884 169 422.998 169C421.498 169 420.498 173 422.998 172.5C425.498 172 440.998 161.5 440.998 160C440.998 158.5 441.998 122 440.998 120.5C439.998 119 435.998 121 435.998 119C435.998 117 435.998 106 435.998 104.5C435.998 103 440.998 103 440.998 103C440.998 103 470.498 104.5 470.498 103C470.498 101.5 470.998 81.5 470.498 80C469.998 78.5 468.998 71.8114 467.498 71C465.998 70.1886 465.498 80 463.998 80C462.498 80 460.998 71 459.498 71C457.998 71 456.998 80 455.998 80C454.998 80 453.998 71 452.498 71C450.998 71 448.998 80 446.998 80C444.998 80 444.498 71 443.498 71C442.498 71 442.498 80 439.498 80C436.498 80 437.998 72 437.998 72C437.998 72 451.668 8.5 452.498 7C453.328 5.5 455.998 5 455.998 3.5C455.998 2 453.498 1 452.498 1C451.498 1 448.498 2.5 450.998 5.5C453.498 8.5 465.498 68.5 465.498 68.5C465.498 68.5 469.998 83 467.498 83C464.998 83 437.998 82.5 436.998 82.5C435.998 82.5 435.998 99.3265 436.998 101.5C437.998 103.674 440.998 104.5 440.998 107C440.998 109.5 440.998 112.508 440.998 116.004C440.998 119.5 434.498 126 434.498 134C434.498 142 434.498 151 434.498 154.5C434.498 158 460.998 149.5 460.998 148.5C460.998 147.5 463.498 116.004 455.498 115C447.498 113.996 446.998 128.5 446.998 128.5C446.998 128.5 446.498 146.999 446.498 148.999C446.498 150.999 462.998 148.5 463.998 147.5C464.998 146.5 463.98 111.5 464.48 109C464.98 106.5 470.48 104.8 470.48 108C470.48 111.2 468.998 118.5 469.998 119.5C470.998 120.5 470.998 122.5 470.998 122.5C470.998 122.5 470.998 134.5 470.998 136.5C470.998 138.5 473.498 136 473.498 138.5C473.498 141 473.498 144.501 470.998 146C468.498 147.499 441.998 164.5 441.998 165.5C441.998 166.5 444.998 166 446.998 165.5C448.998 165 484.498 138 489.498 136.5C494.498 135 520.498 137 524.498 136.5C528.498 136 529.498 133 526.998 133C525.756 133 519.123 132.939 509.998 133C500.747 133.062 490.504 131.748 489.498 132C487.498 132.5 487.498 122.5 489.498 122.5C491.498 122.5 498.498 123.5 499.998 122.5C501.498 121.5 499.498 120.5 499.498 120.5C499.498 120.5 495.498 120.5 493.498 120.5C491.498 120.5 491.998 99 492.998 98.5C493.998 98 500.498 96.5 501.498 98.5C502.498 100.5 500.498 129.5 502.998 130C505.498 130.5 513.998 130.5 515.498 130C516.998 129.5 515.498 100 515.498 97.5C515.498 95 499.098 95 497.498 95C495.898 95 494.164 95 493.498 95C493.164 95 494.039 89.25 497.498 85.5C500.956 81.75 507.998 80 507.998 80C507.998 80 512.498 77.5 512.498 75.5C512.498 73.5 508.998 73.5 508.998 73.5C508.998 73.5 505.998 73.5 505.998 75.5C505.998 77.5 507.998 80 509.998 80C511.998 80 509.998 64 509.998 61.5C509.998 59 507.998 66 507.998 68.5C507.998 71 508.498 78.5 512.998 80C515.121 80.7078 519.524 83.1275 521.998 86.5C524.766 90.2745 526.498 95 524.498 95C522.498 95 518.498 95 516.998 95C515.498 95 516.998 97.5 518.498 97.5C519.998 97.5 525.498 96 525.498 98.5C525.498 101 526.498 117.5 525.498 119C524.498 120.5 520.998 120.5 519.498 120.5C517.998 120.5 516.498 122 519.498 122.5C522.498 123 528.998 120 529.998 122.5C530.998 125 530.998 127 530.998 130C530.998 133 529.498 136.5 531.998 138C534.498 139.5 595.498 167 591.498 167C587.498 167 562.998 165.5 558.998 165.5C554.998 165.5 527.998 142.5 524.498 140.5C520.998 138.5 516.998 138.5 515.498 138.5C513.998 138.5 533.998 164.5 528.498 164.5C522.998 164.5 490.998 164.5 487.998 164.5C484.998 164.5 500.998 143 501.498 140C501.998 137 496.998 138.5 494.498 138.5C491.998 138.5 461.498 162.242 460.498 165.5C459.498 168.758 458.48 174.5 464.48 174.5C468.022 174.5 540.998 174.5 589.997 175.5C625.452 176.224 642.861 164 653.497 144.5C664.133 125 672.997 100 700.497 83C727.997 66 769.497 66.5 784.997 86.5M67.8813 81.4771C67.7527 81.2682 67.6247 81.1084 67.4977 81.0025C64.4979 78.5028 64.9976 77.0025 65.4973 75.502C65.997 74.0013 69.9974 72.5011 70.9974 75.5011C71.9974 78.5011 70.4974 78.9994 68.4977 80.5016C68.333 80.6252 68.1243 80.9624 67.8813 81.4771Z" stroke="#305C6E" stroke-linecap="round"/>
</svg>
